<svg width="60" height="60" viewBox="0 0 60 60" fill="none" xmlns="http://www.w3.org/2000/svg">
<path d="M38.0606 48.4329C35.9047 48.0595 33.6411 47.8437 31.3359 47.7939V57.2117C33.923 55.129 36.2198 52.0672 38.0606 48.4329Z" fill="black"/>
<path d="M28.8477 57.3274V47.8018C26.5177 47.8764 24.254 48.1171 22.0898 48.5236C23.9306 52.1995 26.2441 55.2779 28.8477 57.3274Z" fill="black"/>
<path d="M31.3359 45.3054C34.0142 45.3552 36.6344 45.6291 39.1303 46.102C40.9462 41.8205 42.1485 36.9415 42.4802 31.9961H31.3359V45.3054Z" fill="black"/>
<path d="M21.0277 46.2011C23.5235 45.7032 26.1437 45.3962 28.8468 45.3133V31.9873H17.6943C18.026 36.9825 19.22 41.9029 21.0277 46.2011Z" fill="black"/>
<path d="M42.588 29.2164C42.588 24.3457 41.6924 19.6244 40.1004 15.4258C37.3226 15.9734 34.3707 16.2638 31.3359 16.2887V29.4985H42.5797C42.5797 29.4072 42.588 29.3077 42.588 29.2164Z" fill="black"/>
<path d="M21.2275 12.7546C23.6322 13.2939 26.2026 13.6424 28.8477 13.7586V3.02148C25.7466 5.35311 23.1512 8.73024 21.2275 12.7546Z" fill="black"/>
<path d="M15.2 31.9873H0.0507812C0.539999 39.5132 3.80698 46.2924 8.84012 51.2958C8.93133 51.0884 9.08058 50.8975 9.28788 50.7648C11.8749 49.0472 15.059 47.6864 18.5996 46.757C16.7505 42.2431 15.5233 37.1401 15.2 31.9873Z" fill="black"/>
<path d="M17.5957 29.2167C17.5957 29.308 17.604 29.4076 17.604 29.4989H28.8477V16.2476C25.8544 16.1148 22.9356 15.7165 20.2159 15.0693C18.5327 19.3509 17.5957 24.2133 17.5957 29.2167Z" fill="black"/>
<path d="M15.1077 29.217C15.1077 24.0061 16.0944 18.9363 17.8274 14.4224C14.2454 13.3354 11.0779 11.8086 8.63179 9.91678C8.44108 9.76743 8.30841 9.57658 8.23379 9.36914C3.24211 14.6381 0.132669 21.716 0 29.4991H15.116C15.1077 29.4079 15.1077 29.3083 15.1077 29.217Z" fill="black"/>
<path d="M40.5378 48.9385C38.2327 53.6847 35.1813 57.6095 31.7236 59.9992C38.5976 59.6092 44.8579 56.8876 49.7335 52.6226C49.6837 52.5977 49.6257 52.5811 49.5759 52.5479C47.0635 50.9714 43.9624 49.7516 40.5378 48.9385Z" fill="black"/>
<path d="M41.5664 46.6248C45.0821 47.5043 48.2745 48.7904 50.8947 50.4334C51.1352 50.5827 51.301 50.8068 51.3922 51.0474C56.2844 46.0605 59.4602 39.381 59.9411 31.9795H44.9743C44.651 37.0908 43.4238 42.1358 41.5664 46.6248Z" fill="black"/>
<path d="M52.4551 10.5136C49.7437 12.4138 46.3357 13.8824 42.5215 14.8781C44.1467 19.2842 45.0671 24.1798 45.0671 29.2247C45.0671 29.316 45.0671 29.4155 45.0588 29.5068H60.0007C59.8763 22.1883 57.1234 15.5005 52.6458 10.3477C52.5961 10.3974 52.5297 10.4638 52.4551 10.5136Z" fill="black"/>
<path d="M31.3359 3.02148V13.8001C34.0308 13.7752 36.651 13.5345 39.122 13.0782C37.1817 8.91278 34.5117 5.41949 31.3359 3.02148Z" fill="black"/>
<path d="M41.5758 12.546C45.1911 11.6415 48.4083 10.2807 50.9456 8.52164C45.8212 3.51818 38.9307 0.331904 31.3105 0C35.614 2.71332 39.1629 7.15253 41.5758 12.546Z" fill="black"/>
<path d="M10.1505 7.9408C12.4308 9.6999 15.4076 11.1188 18.7989 12.1228C21.2118 6.9119 24.6861 2.63864 28.8735 0C21.5684 0.273821 14.9183 3.16139 9.84375 7.77485C9.95154 7.81634 10.051 7.86613 10.1505 7.9408Z" fill="black"/>
<path d="M19.6274 49.0645C16.2029 49.9274 13.1349 51.2052 10.6723 52.8482C10.6391 52.8648 10.6059 52.8731 10.5811 52.8896C15.4152 57.0053 21.5594 59.619 28.2924 60.0007C24.8845 57.6442 21.8994 53.7692 19.6274 49.0645Z" fill="black"/>
</svg>
